<?xml version="1.0" encoding="UTF-8" standalone="no"?>
<!-- Created with Inkscape (http://www.inkscape.org/) -->

<svg
   xmlns:dc="http://purl.org/dc/elements/1.1/"
   xmlns:cc="http://creativecommons.org/ns#"
   xmlns:rdf="http://www.w3.org/1999/02/22-rdf-syntax-ns#"
   xmlns:svg="http://www.w3.org/2000/svg"
   xmlns="http://www.w3.org/2000/svg"
   xmlns:sodipodi="http://sodipodi.sourceforge.net/DTD/sodipodi-0.dtd"
   xmlns:inkscape="http://www.inkscape.org/namespaces/inkscape"
   width="108.12306mm"
   height="49.332294mm"
   viewBox="0 0 108.12306 49.332294"
   version="1.1"
   id="svg901"
   inkscape:version="0.92.3 (2405546, 2018-03-11)"
   sodipodi:docname="logo.svg">
  <defs
     id="defs895">
    <clipPath
       id="clipPath16"
       clipPathUnits="userSpaceOnUse">
      <path
         inkscape:connector-curvature="0"
         id="path18"
         d="M 0,0 H 595.276 V 841.89 H 0 Z" />
    </clipPath>
  </defs>
  <sodipodi:namedview
     id="base"
     pagecolor="#ffffff"
     bordercolor="#666666"
     borderopacity="1.0"
     inkscape:pageopacity="0.0"
     inkscape:pageshadow="2"
     inkscape:zoom="0.35"
     inkscape:cx="-155.67296"
     inkscape:cy="-158.20219"
     inkscape:document-units="mm"
     inkscape:current-layer="layer1"
     showgrid="false"
     fit-margin-top="0"
     fit-margin-left="0"
     fit-margin-right="0"
     fit-margin-bottom="0"
     inkscape:window-width="1869"
     inkscape:window-height="1025"
     inkscape:window-x="51"
     inkscape:window-y="27"
     inkscape:window-maximized="1" />
  <metadata
     id="metadata898">
    <rdf:RDF>
      <cc:Work
         rdf:about="">
        <dc:format>image/svg+xml</dc:format>
        <dc:type
           rdf:resource="http://purl.org/dc/dcmitype/StillImage" />
        <dc:title></dc:title>
      </cc:Work>
    </rdf:RDF>
  </metadata>
  <g
     inkscape:label="Layer 1"
     inkscape:groupmode="layer"
     id="layer1"
     transform="translate(-19.265851,-57.643375)">
    <g
       transform="matrix(0.33072917,0,0,-0.33072917,-24.514952,274.28388)"
       id="g12">
      <g
         clip-path="url(#clipPath16)"
         id="g14">
        <g
           transform="translate(172.6116,580.225)"
           id="g20">
          <path
             inkscape:connector-curvature="0"
             id="path22"
             style="fill:#ffffff;fill-opacity:1;fill-rule:nonzero;stroke:none"
             d="M 0,0 C 19.098,0 34.579,15.482 34.579,34.579 34.579,53.677 19.098,69.158 0,69.158 -19.098,69.158 -34.579,53.677 -34.579,34.579 -34.579,15.482 -19.098,0 0,0" />
        </g>
        <g
           transform="translate(172.6116,580.225)"
           id="g24">
          <path
             inkscape:connector-curvature="0"
             id="path26"
             style="fill:none;stroke:#231f20;stroke-width:11.31200027;stroke-linecap:butt;stroke-linejoin:miter;stroke-miterlimit:4;stroke-dasharray:none;stroke-opacity:1"
             d="M 0,0 C 19.098,0 34.579,15.482 34.579,34.579 34.579,53.677 19.098,69.158 0,69.158 -19.098,69.158 -34.579,53.677 -34.579,34.579 -34.579,15.482 -19.098,0 0,0 Z" />
        </g>
        <g
           transform="translate(212.9852,580.225)"
           id="g28">
          <path
             inkscape:connector-curvature="0"
             id="path30"
             style="fill:#ffffff;fill-opacity:1;fill-rule:nonzero;stroke:none"
             d="M 0,0 C 19.098,0 34.579,15.482 34.579,34.579 34.579,53.677 19.098,69.158 0,69.158 -19.098,69.158 -34.579,53.677 -34.579,34.579 -34.579,15.482 -19.098,0 0,0" />
        </g>
        <g
           transform="translate(212.9852,580.225)"
           id="g32">
          <path
             inkscape:connector-curvature="0"
             id="path34"
             style="fill:none;stroke:#231f20;stroke-width:11.31200027;stroke-linecap:butt;stroke-linejoin:miter;stroke-miterlimit:4;stroke-dasharray:none;stroke-opacity:1"
             d="M 0,0 C 19.098,0 34.579,15.482 34.579,34.579 34.579,53.677 19.098,69.158 0,69.158 -19.098,69.158 -34.579,53.677 -34.579,34.579 -34.579,15.482 -19.098,0 0,0 Z" />
        </g>
        <g
           transform="translate(192.7984,586.7686)"
           id="g36">
          <path
             inkscape:connector-curvature="0"
             id="path38"
             style="fill:#00adef;fill-opacity:1;fill-rule:nonzero;stroke:none"
             d="M 0,0 C 8.705,6.279 14.392,16.482 14.392,28.036 14.392,39.589 8.705,49.792 0,56.071 -8.705,49.792 -14.392,39.589 -14.392,28.036 -14.392,16.482 -8.705,6.279 0,0" />
        </g>
        <g
           transform="translate(192.7984,586.7686)"
           id="g40">
          <path
             inkscape:connector-curvature="0"
             id="path42"
             style="fill:none;stroke:#231f20;stroke-width:11.31200027;stroke-linecap:butt;stroke-linejoin:miter;stroke-miterlimit:4;stroke-dasharray:none;stroke-opacity:1"
             d="M 0,0 C 8.705,6.279 14.392,16.482 14.392,28.036 14.392,39.589 8.705,49.792 0,56.071 -8.705,49.792 -14.392,39.589 -14.392,28.036 -14.392,16.482 -8.705,6.279 0,0 Z" />
        </g>
      </g>
    </g>
    <text
       y="106.97567"
       x="19.66901"
       id="text44"
       style="font-variant:normal;font-weight:normal;font-stretch:normal;font-size:33.22637177px;font-family:'Handel Gothic BT';-inkscape-font-specification:HandelGothicBT-Regular;writing-mode:lr-tb;fill:#231f20;fill-opacity:1;fill-rule:nonzero;stroke:none;stroke-width:0.33072916">
      <tspan
         style="font-style:normal;font-variant:normal;font-weight:500;font-stretch:normal;font-family:'Handel Gothic D';-inkscape-font-specification:'Handel Gothic D Medium';stroke-width:0.33072916"
         id="tspan46"
         y="106.97567"
         x="19.66901 39.671288 59.075493 81.536514 106.4563">uzERP</tspan>
    </text>
  </g>
</svg>
