<?xml version="1.0" encoding="UTF-8" standalone="no"?>
<svg
   xmlns:dc="http://purl.org/dc/elements/1.1/"
   xmlns:cc="http://creativecommons.org/ns#"
   xmlns:rdf="http://www.w3.org/1999/02/22-rdf-syntax-ns#"
   xmlns:svg="http://www.w3.org/2000/svg"
   xmlns="http://www.w3.org/2000/svg"
   xmlns:sodipodi="http://sodipodi.sourceforge.net/DTD/sodipodi-0.dtd"
   xmlns:inkscape="http://www.inkscape.org/namespaces/inkscape"
   version="1.1"
   x="0px"
   y="0px"
   viewBox="0 0 100 125"
   enable-background="new 0 0 100 100"
   xml:space="preserve"
   id="svg2"
   inkscape:version="0.91 r13725"
   sodipodi:docname="logo.svg"
   inkscape:export-filename="/home/martyn/Documents/Consulting/Positive Churn/logo medium.png"
   inkscape:export-xdpi="130.90909"
   inkscape:export-ydpi="130.90909"><metadata
     id="metadata16"><rdf:RDF><cc:Work
         rdf:about=""><dc:format>image/svg+xml</dc:format><dc:type
           rdf:resource="http://purl.org/dc/dcmitype/StillImage" /></cc:Work></rdf:RDF></metadata><defs
     id="defs14" /><sodipodi:namedview
     pagecolor="#ffffff"
     bordercolor="#666666"
     borderopacity="1"
     objecttolerance="10"
     gridtolerance="10"
     guidetolerance="10"
     inkscape:pageopacity="0"
     inkscape:pageshadow="2"
     inkscape:window-width="1871"
     inkscape:window-height="1056"
     id="namedview12"
     showgrid="false"
     inkscape:zoom="5.0176297"
     inkscape:cx="12.562148"
     inkscape:cy="67.379947"
     inkscape:window-x="49"
     inkscape:window-y="24"
     inkscape:window-maximized="1"
     inkscape:current-layer="svg2" /><rect
     style="opacity:1;fill:#cccccc;fill-opacity:1;stroke:none;stroke-width:10;stroke-linecap:butt;stroke-linejoin:miter;stroke-miterlimit:4;stroke-dasharray:none;stroke-dashoffset:0;stroke-opacity:1"
     id="rect4341"
     width="88"
     height="88"
     x="6"
     y="18.5" /><g
     id="g4273"
     transform="matrix(1.139658,0,0,0.94114876,-5.0635594,16.187011)"
     style="fill:#ff0000"><rect
       y="52.209"
       x="33.14563"
       height="15"
       width="6"
       id="rect4226"
       style="opacity:1;fill:#ff0000;fill-opacity:1;stroke:none;stroke-width:10;stroke-linecap:butt;stroke-linejoin:miter;stroke-miterlimit:4;stroke-dasharray:none;stroke-dashoffset:0;stroke-opacity:1" /><rect
       inkscape:transform-center-y="4.1197824"
       inkscape:transform-center-x="10.786375"
       y="45.209"
       x="41.259117"
       height="22"
       width="6"
       id="rect4226-2"
       style="opacity:1;fill:#ff0000;fill-opacity:1;stroke:none;stroke-width:10;stroke-linecap:butt;stroke-linejoin:miter;stroke-miterlimit:4;stroke-dasharray:none;stroke-dashoffset:0;stroke-opacity:1" /><rect
       inkscape:transform-center-y="5.4306323"
       inkscape:transform-center-x="10.786375"
       y="38.208992"
       x="49.372604"
       height="29"
       width="6"
       id="rect4226-2-9"
       style="opacity:1;fill:#ff0000;fill-opacity:1;stroke:none;stroke-width:10;stroke-linecap:butt;stroke-linejoin:miter;stroke-miterlimit:4;stroke-dasharray:none;stroke-dashoffset:0;stroke-opacity:1" /><rect
       inkscape:transform-center-y="6.7414837"
       inkscape:transform-center-x="10.786375"
       y="31.209"
       x="57.486095"
       height="36"
       width="6"
       id="rect4226-2-9-1"
       style="opacity:1;fill:#ff0000;fill-opacity:1;stroke:none;stroke-width:10;stroke-linecap:butt;stroke-linejoin:miter;stroke-miterlimit:4;stroke-dasharray:none;stroke-dashoffset:0;stroke-opacity:1" /></g><g
     id="g4337"
     transform="translate(-1.671729,9.427968)"><path
       style="fill:#000000"
       inkscape:connector-curvature="0"
       id="path6"
       d="m 87.631984,51.913032 c -0.006,-7.622 -2.374,-14.7 -6.407,-20.55 -0.057,-0.097 -0.097,-0.199 -0.165,-0.295 -0.5,-0.713 -1.045,-1.38 -1.591,-2.051 -0.062,-0.079 -0.119,-0.165 -0.187,-0.244 -3.687,-4.475 -8.322,-7.934 -13.57,-10.196 -0.147,-0.062 -0.29,-0.13 -0.432,-0.193 -0.84,-0.346 -1.697,-0.653 -2.561,-0.938 -0.313,-0.105 -0.619,-0.216 -0.932,-0.312 -0.756,-0.227 -1.517,-0.409 -2.29,-0.59 -0.426,-0.096 -0.846,-0.205 -1.278,-0.29 -0.209,-0.039 -0.414,-0.103 -0.623,-0.142 -0.574,-0.1 -1.148,-0.143 -1.728,-0.216 -0.397,-0.051 -0.79,-0.114 -1.187,-0.154 -0.967,-0.091 -1.927,-0.13 -2.887,-0.145 -0.175,-0.002 -0.343,-0.025 -0.516,-0.025 -0.034,0 -0.063,0.008 -0.094,0.012 -7.381,0.005 -14.578,2.232 -20.755,6.561 -1.974,1.38 -2.453,4.102 -1.069,6.075 1.379,1.973 4.1,2.453 6.074,1.07 4.771,-3.34 10.341,-5.035 16.049,-4.981 0.818,0.005 1.626,0.045 2.425,0.122 0.244,0.025 0.488,0.062 0.733,0.094 0.659,0.079 1.312,0.17 1.948,0.295 0.283,0.057 0.562,0.131 0.84,0.193 0.631,0.143 1.261,0.296 1.875,0.483 0.192,0.057 0.386,0.13 0.578,0.193 0.705,0.23 1.398,0.478 2.074,0.762 0.068,0.028 0.136,0.063 0.204,0.09 4.067,1.75 7.635,4.442 10.417,7.811 0.018,0.02 0.034,0.045 0.052,0.064 3.913,4.769 6.271,10.863 6.276,17.497 l -7.276,0 11.639,17.449 11.629,-17.449 -7.265,0 z" /><path
       style="fill:#000000"
       inkscape:connector-curvature="0"
       id="path4"
       d="m 67.920474,76.831035 c -4.81,3.368 -10.428,5.062 -16.179,4.98 -0.758,-0.011 -1.514,-0.045 -2.261,-0.113 -0.304,-0.028 -0.611,-0.079 -0.917,-0.119 -0.585,-0.073 -1.17,-0.153 -1.747,-0.267 -0.352,-0.068 -0.695,-0.154 -1.042,-0.238 -0.562,-0.131 -1.119,-0.262 -1.666,-0.427 -0.265,-0.079 -0.521,-0.176 -0.781,-0.261 -0.634,-0.21 -1.261,-0.432 -1.872,-0.688 -0.14,-0.057 -0.273,-0.119 -0.412,-0.182 -0.716,-0.313 -1.42,-0.647 -2.104,-1.018 -0.031,-0.016 -0.06,-0.034 -0.091,-0.051 -2.315,-1.266 -4.431,-2.851 -6.285,-4.703 -0.031,-0.033 -0.06,-0.067 -0.091,-0.097 -0.573,-0.579 -1.124,-1.188 -1.647,-1.817 -0.112,-0.131 -0.215,-0.278 -0.326,-0.415 -3.78,-4.725 -6.058,-10.706 -6.058,-17.216 l 7.271,0 -11.634,-17.446 -11.632,17.448 7.271,0 c 0,7.651 2.385,14.74 6.436,20.602 0.051,0.086 0.085,0.17 0.142,0.25 0.421,0.602 0.886,1.153 1.334,1.721 0.17,0.216 0.324,0.438 0.5,0.647 0.665,0.802 1.369,1.563 2.091,2.301 0.067,0.068 0.134,0.142 0.205,0.21 2.431,2.438 5.174,4.487 8.165,6.123 0.082,0.046 0.159,0.097 0.241,0.137 0.864,0.465 1.745,0.887 2.648,1.277997 0.222,0.097 0.44,0.204 0.664,0.301 0.773,0.318 1.558,0.597 2.352,0.857 0.375,0.132 0.75,0.262 1.13,0.375 0.692,0.21 1.403,0.38 2.119,0.551 0.474,0.108 0.945,0.228 1.428,0.324 0.199,0.04 0.389,0.097 0.589,0.13 0.675,0.12 1.351,0.188 2.024,0.268 0.245,0.029 0.482,0.074 0.73,0.097 1.209,0.119 2.42,0.199 3.626,0.199 7.393,0 14.601,-2.262 20.786,-6.594997 1.971,-1.381 2.454,-4.101 1.067,-6.072 -1.382,-1.978 -4.108,-2.455 -6.074,-1.074 z" /></g></svg>